<?xml version="1.0" standalone="no"?>
<!DOCTYPE svg PUBLIC "-//W3C//DTD SVG 20010904//EN"
 "http://www.w3.org/TR/2001/REC-SVG-20010904/DTD/svg10.dtd">
<svg version="1.0"
    xmlns="http://www.w3.org/2000/svg" width="256.000000pt" height="256.000000pt" viewBox="0 0 256.000000 256.000000" preserveAspectRatio="xMidYMid meet">
    <metadata>
Created by potrace 1.14, written by Peter Selinger 2001-2017
    </metadata>
    <g transform="translate(0.000000,256.000000) scale(0.100000,-0.100000)" fill="#000000" stroke="none">
        <path d="M740 2069 c-40 -16 -79 -60 -90 -100 -9 -33 -12 -300 -10 -1164 l0
-211 27 -41 c53 -83 144 -99 229 -41 59 40 64 68 64 353 l0 254 319 0 320 0 0
-254 c0 -197 3 -261 14 -288 44 -105 187 -133 260 -52 44 49 46 67 47 411 0
181 1 336 1 344 2 125 -4 663 -8 684 -4 16 -23 46 -44 67 -82 82 -218 53 -259
-56 -7 -19 -11 -120 -11 -285 l0 -255 -217 2 c-119 1 -263 2 -319 3 l-102 0
-3 268 -3 269 -29 37 c-44 59 -120 81 -186 55z"/>
    </g>
</svg>
